<svg width="512" height="512" viewBox="0 0 512 512" fill="none" xmlns="http://www.w3.org/2000/svg">
<g clip-path="url(#clip0_6_73)">
<path d="M68.661 37.5032H107.099V102.183C107.099 136.968 105.73 170.304 102.991 202.191C100.448 234.078 96.0471 263.791 89.7874 291.329C83.7233 318.868 75.6053 343.145 65.4333 364.161C55.4569 384.815 42.9375 401.302 27.8752 413.622L0 341.333C12.9106 331.188 23.7673 317.781 32.5699 301.113C41.3726 284.444 48.4148 265.602 53.6964 244.586C58.978 223.207 62.7925 200.379 65.1399 176.102C67.4873 151.824 68.661 127.185 68.661 102.183V37.5032ZM78.3439 37.5032H116.489V102.183C116.489 126.098 117.565 149.469 119.717 172.297C121.868 195.125 125.487 216.685 130.573 236.977C135.659 257.268 142.408 275.386 150.819 291.329C159.426 306.91 169.99 319.592 182.509 329.376L155.221 400.578C140.745 388.62 128.519 372.677 118.543 352.747C108.762 332.456 100.937 309.265 95.069 283.176C89.2006 257.087 84.897 228.643 82.1584 197.843C79.6154 167.043 78.3439 135.156 78.3439 102.183V37.5032ZM187.204 0H234.738V512H187.204V0Z" fill="#007BFF"/>
<path d="M265.818 23.9151H312.766V77.1805H353.845V23.9151H400.793V247.304H265.818V23.9151ZM312.766 141.86V179.907H353.845V141.86H312.766ZM430.722 1.08703H477.963V257.631H430.722V1.08703ZM459.477 92.3992H512V163.601H459.477V92.3992ZM292.52 274.48H477.963V421.775H339.761V473.41H292.813V359.813H431.309V340.79H292.52V274.48ZM292.813 441.342H485.005V508.739H292.813V441.342Z" fill="#007BFF"/>
</g>
<defs>
<clipPath id="clip0_6_73">
<rect width="512" height="512" fill="white"/>
</clipPath>
</defs>
</svg>
